<?xml version="1.0" standalone="no"?>
<!DOCTYPE svg PUBLIC "-//W3C//DTD SVG 20010904//EN"
 "http://www.w3.org/TR/2001/REC-SVG-20010904/DTD/svg10.dtd">
<svg version="1.0" xmlns="http://www.w3.org/2000/svg"
 width="32.000000pt" height="32.000000pt" viewBox="0 0 32.000000 32.000000"
 preserveAspectRatio="xMidYMid meet">

<g transform="translate(0.000000,32.000000) scale(0.100000,-0.100000)"
fill="#000000" stroke="none">
<path d="M222 169 c-34 -13 -29 -56 8 -77 16 -9 30 -20 30 -24 0 -15 -22 -19
-36 -7 -10 9 -18 9 -25 2 -16 -16 34 -47 61 -38 24 8 42 38 35 57 -3 8 -19 22
-35 32 -33 19 -32 37 0 29 13 -4 20 0 20 10 0 19 -29 27 -58 16z"/>
<path d="M140 110 c0 -55 -10 -75 -25 -50 -4 6 -11 8 -16 5 -29 -19 19 -52 51
-35 17 9 20 21 20 75 0 51 -3 65 -15 65 -12 0 -15 -13 -15 -60z"/>
</g>
</svg>
